<?xml version="1.0" encoding="UTF-8" standalone="no"?>
<!DOCTYPE svg PUBLIC "-//W3C//DTD SVG 1.1//EN" "http://www.w3.org/Graphics/SVG/1.1/DTD/svg11.dtd">
<!-- Generated by Microsoft Visio, SVG Export demo-diagram.svg Page-1 -->
<svg xmlns="http://www.w3.org/2000/svg" xmlns:xlink="http://www.w3.org/1999/xlink" xmlns:ev="http://www.w3.org/2001/xml-events"
		xmlns:v="http://schemas.microsoft.com/visio/2003/SVGExtensions/" width="11in" height="8.5in" viewBox="0 0 792 612"
		xml:space="preserve" color-interpolation-filters="sRGB" class="st13">
	<v:documentProperties v:langID="1033" v:viewMarkup="false">
		<v:userDefs>
			<v:ud v:nameU="msvNoAutoConnect" v:prompt="" v:val="VT0(1):26"/>
		</v:userDefs>
	</v:documentProperties>

	<style type="text/css">
	<![CDATA[
		.st1 {fill:#ffffff;stroke:#5b9bd5;stroke-linecap:round;stroke-linejoin:round;stroke-width:0.5}
		.st2 {fill:#0078d7;stroke:none;stroke-linecap:butt;stroke-width:0.5}
		.st3 {fill:#0078d7;font-family:Calibri;font-size:0.75em}
		.st4 {fill:#5b9bd5;stroke:#ffffff;stroke-linecap:round;stroke-linejoin:round;stroke-width:0.5}
		.st5 {fill:#5b9bd5;font-family:Calibri;font-size:0.75em}
		.st6 {fill:#5b9bd5;stroke:none;stroke-linecap:butt;stroke-width:0.5}
		.st7 {font-size:1em}
		.st8 {fill:#59b4d9;stroke:none;stroke-linecap:butt;stroke-width:12.24}
		.st9 {marker-end:url(#mrkr4-59);stroke:#5592c9;stroke-linecap:round;stroke-linejoin:round;stroke-width:0.5}
		.st10 {fill:#5592c9;fill-opacity:1;stroke:#5592c9;stroke-opacity:1;stroke-width:0.16556291390728}
		.st11 {fill:#ffffff;stroke:none;stroke-linecap:butt;stroke-width:7.2}
		.st12 {fill:#41719d;font-family:Calibri;font-size:0.666664em}
		.st13 {fill:none;fill-rule:evenodd;font-size:12px;overflow:visible;stroke-linecap:square;stroke-miterlimit:3}
	]]>
	</style>

	<defs id="Markers">
		<g id="lend4">
			<path d="M 2 1 L 0 0 L 2 -1 L 2 1 " style="stroke:none"/>
		</g>
		<marker id="mrkr4-59" class="st10" v:arrowType="4" v:arrowSize="2" v:setback="12.08" refX="-12.08" orient="auto"
				markerUnits="strokeWidth" overflow="visible">
			<use xlink:href="#lend4" transform="scale(-6.04,-6.04) "/>
		</marker>
	</defs>
	<g v:mID="0" v:index="1" v:groupContext="foregroundPage">
		<v:userDefs>
			<v:ud v:nameU="msvThemeOrder" v:val="VT0(0):26"/>
		</v:userDefs>
		<title>Page-1</title>
		<v:pageProperties v:drawingScale="1" v:pageScale="1" v:drawingUnits="0" v:shadowOffsetX="9" v:shadowOffsetY="-9"/>
		<v:layer v:name="Connector" v:index="0"/>
		<g id="shape39-1" v:mID="39" v:groupContext="shape" transform="translate(274.5,-81)">
			<title>Sheet.39</title>
			<rect x="0" y="103.5" width="400.5" height="508.5" class="st1"/>
		</g>
		<g id="shape1-3" v:mID="1" v:groupContext="shape" transform="translate(373.258,-349.692)">
			<title>Azure Functions (nc)</title>
			<path d="M23.6 582.75 L13.94 582.75 L8.73 597.42 L15.08 597.47 L10.12 612 L23.8 592.62 L17.16 592.62 L23.6 582.75 ZM0.2
						 597.57 L1.74 599.31 L1.79 599.36 L8.73 606 C8.98 606.25 9.53 606.3 9.82 606 C10.12 605.7 10.12 605.16 9.82
						 604.86 L2.63 597.57 C2.34 597.28 2.34 596.73 2.63 596.43 L9.67 589.39 C10.07 589.1 9.97 588.55 9.67 588.25
						 C9.33 587.96 8.88 587.96 8.58 588.25 L1.74 594.9 L0.2 596.43 C-0.04 596.73 -0.09 597.28 0.2 597.57 ZM31.54
						 597.57 C31.83 597.28 31.79 596.73 31.54 596.43 L30 594.9 L23.16 588.25 C22.86 587.96 22.42 587.96 22.07
						 588.25 C21.77 588.55 21.67 589.1 22.07 589.39 L29.26 596.43 C29.55 596.73 29.55 597.28 29.26 597.57 L21.92
						 604.86 C21.62 605.16 21.62 605.7 21.92 606 C22.22 606.3 22.76 606.25 23.01 606 L29.8 599.26 L29.85 599.21
						 L31.54 597.57 Z" class="st2"/>
		</g>
		<g id="group2-5" transform="translate(380.903,-290.682)" v:mID="2" v:groupContext="group">
			<title>Storage queue</title>
			<desc>Storage queue</desc>
			<g id="group3-6" v:mID="3" v:groupContext="group">
				<title>Sheet.3</title>
				<g id="shape4-7" v:mID="4" v:groupContext="shape" transform="translate(13.515,1212.08) scale(1,-1)">
					<title>Sheet.4</title>
					<path d="M5.23 612 L0 612 L2.61 609.96 L5.23 612 Z" class="st2"/>
				</g>
				<g id="shape5-9" v:mID="5" v:groupContext="shape" transform="translate(5.54625,1212.84) scale(1,-1)">
					<title>Sheet.5</title>
					<path d="M2.61 609.96 C2.55 609.96 2.49 609.96 2.42 610.02 L0 611.94 L0 608.81 L5.55 608.81 L5.55 612 L2.87 610.02
								 C2.8 609.96 2.68 609.96 2.61 609.96 Z" class="st2"/>
				</g>
				<g id="shape6-11" v:mID="6" v:groupContext="shape" transform="translate(13.3875,1212.84) scale(1,-1)">
					<title>Sheet.6</title>
					<path d="M2.74 609.96 C2.68 609.96 2.55 609.96 2.49 610.02 L0 611.94 L0 608.81 L5.55 608.81 L5.55 612 L2.93 610.02
								 C2.87 609.96 2.8 609.96 2.74 609.96 Z" class="st2"/>
				</g>
				<g id="shape7-13" v:mID="7" v:groupContext="shape" transform="translate(0,1203.09) scale(1,-1)">
					<title>Sheet.7</title>
					<path d="M18.1 612 L5.99 612 L0 601.54 L6.06 591.09 L18.1 591.09 L24.1 601.54 L18.1 612 ZM20.21 597.08 L3.7 597.08
								 C3.19 597.08 2.81 597.53 2.81 598.04 L2.81 604.35 C2.81 604.86 3.19 605.31 3.7 605.31 L20.21 605.31
								 C20.4 605.31 20.72 605.31 22.89 601.23 L22.95 601.03 L22.89 600.91 C20.72 597.08 20.4 597.08 20.21
								 597.08 Z" class="st2"/>
				</g>
				<g id="shape8-15" v:mID="8" v:groupContext="shape" transform="translate(5.4825,1212.08) scale(1,-1)">
					<title>Sheet.8</title>
					<path d="M5.29 612 L0 612 L2.61 609.96 L5.29 612 Z" class="st2"/>
				</g>
				<g id="shape9-17" v:mID="9" v:groupContext="shape" transform="translate(3.4425,1210.49) scale(1,-1)">
					<title>Sheet.9</title>
					<path d="M0.26 612 C0.13 612 0 611.87 0 611.74 L0 605.43 C0 605.31 0.13 605.11 0.26 605.11 L16.64 605.11 C16.96
								 605.43 17.91 606.96 18.74 608.43 C17.91 610.02 16.89 611.68 16.64 612 L0.26 612 ZM8.29 606.13 C8.29
								 605.94 8.1 605.75 7.84 605.75 L1.59 605.75 C1.4 605.75 1.34 605.94 1.34 606.13 L1.34 610.79 C1.34
								 610.98 1.4 611.04 1.59 611.04 L7.84 611.04 C8.03 611.04 8.29 610.98 8.29 610.79 L8.29 606.13 ZM16.13
								 606.13 C16.13 605.94 16 605.75 15.81 605.75 L9.63 605.75 C9.44 605.75 9.31 605.94 9.31 606.13 L9.31
								 610.79 C9.31 610.98 9.44 611.04 9.63 611.04 L15.81 611.04 C16 611.04 16.13 610.98 16.13 610.79 L16.13
								 606.13 Z" class="st2"/>
				</g>
			</g>
			<g id="shape2-19" v:mID="2" v:groupContext="groupContent">
				<v:textBlock v:margins="rect(0,0,0,0)" v:verticalAlign="0"/>
				<v:textRect cx="12.0487" cy="629.059" width="72" height="30.9375"/>
				<text x="-14.57" y="621.69" class="st3" v:langID="1033"><v:paragraph v:horizAlign="1"/><v:tabList/>Storage queue</text>			</g>
		</g>
		<g id="group13-21" transform="translate(378.491,-115.548)" v:mID="13" v:groupContext="group">
			<title>Storage blob</title>
			<desc>Storage blob</desc>
			<g id="shape14-22" v:mID="14" v:groupContext="shape">
				<title>Sheet.14</title>
				<path d="M21.69 586.96 L7.23 586.96 L0 599.48 L7.23 612 L21.69 612 L28.92 599.48 L21.69 586.96 ZM21.73 605.07 C21.73
							 606.15 20.85 607.03 19.77 607.03 L9.15 607.03 C8.07 607.03 7.19 606.15 7.19 605.07 L7.19 593.88 C7.19
							 592.8 8.07 591.93 9.15 591.93 L17.03 591.93 C17.81 591.93 18.49 591.93 18.49 591.93 L18.71 591.93 L21.73
							 594.91 L21.73 596.5 L21.73 605.07 Z" class="st2"/>
			</g>
			<g id="shape15-24" v:mID="15" v:groupContext="shape" transform="translate(12.1013,-8.085)">
				<title>Sheet.15</title>
				<path d="M1.23 609.57 C1.21 609.46 1.18 609.36 1.15 609.28 C1.11 609.2 1.07 609.14 1.02 609.09 C0.98 609.05 0.92
							 609.01 0.86 608.99 C0.8 608.97 0.73 608.96 0.66 608.96 C0.53 608.96 0.42 608.99 0.33 609.06 C0.25 609.12
							 0.18 609.21 0.13 609.34 C0.08 609.46 0.05 609.62 0.03 609.81 C0.01 609.99 0 610.21 0 610.46 C0 610.76
							 0.01 611.01 0.04 611.21 C0.06 611.41 0.1 611.56 0.15 611.68 C0.2 611.8 0.27 611.88 0.35 611.93 C0.43
							 611.98 0.53 612 0.64 612 C0.73 612 0.8 611.99 0.87 611.96 C0.93 611.93 0.99 611.89 1.04 611.84 C1.09
							 611.78 1.13 611.71 1.16 611.63 C1.2 611.55 1.22 611.45 1.24 611.34 C1.26 611.23 1.28 611.11 1.29 610.97
							 C1.29 610.83 1.3 610.68 1.3 610.51 C1.3 610.31 1.29 610.13 1.28 609.97 C1.27 609.82 1.26 609.69 1.23
							 609.57 Z" class="st2"/>
			</g>
			<g id="shape16-26" v:mID="16" v:groupContext="shape" transform="translate(15.5167,-13.9237)">
				<title>Sheet.16</title>
				<path d="M1.23 609.57 C1.21 609.46 1.18 609.36 1.15 609.28 C1.11 609.2 1.07 609.14 1.02 609.09 C0.98 609.05 0.92
							 609.01 0.86 608.99 C0.8 608.97 0.73 608.96 0.65 608.96 C0.53 608.96 0.42 608.99 0.33 609.06 C0.25 609.12
							 0.18 609.21 0.13 609.34 C0.08 609.46 0.05 609.62 0.03 609.81 C0.01 609.99 0 610.21 0 610.46 C0 610.76
							 0.01 611.01 0.04 611.21 C0.06 611.41 0.1 611.56 0.15 611.68 C0.2 611.8 0.27 611.88 0.35 611.93 C0.43
							 611.98 0.53 612 0.64 612 C0.73 612 0.8 611.99 0.87 611.96 C0.93 611.93 0.99 611.89 1.04 611.84 C1.09
							 611.78 1.13 611.71 1.16 611.63 C1.2 611.55 1.22 611.45 1.24 611.34 C1.26 611.23 1.28 611.11 1.29 610.97
							 C1.29 610.83 1.3 610.68 1.3 610.51 C1.3 610.31 1.29 610.13 1.28 609.97 C1.27 609.82 1.25 609.69 1.23
							 609.57 Z" class="st2"/>
			</g>
			<g id="shape17-28" v:mID="17" v:groupContext="shape" transform="translate(8.2605,-6.04125)">
				<title>Sheet.17</title>
				<path d="M9.98 599.05 C9.71 599.04 9.26 599.04 8.76 599.04 L0.88 599.04 C0.39 599.04 0 599.44 0 599.92 L0 611.12
							 C0 611.61 0.39 612 0.88 612 L11.51 612 C11.99 612 12.4 611.6 12.4 611.12 L12.4 601.5 L9.98 601.5 L9.98
							 599.05 L9.98 599.05 ZM3.27 601.27 C3.27 601.24 3.28 601.21 3.29 601.19 C3.3 601.16 3.31 601.14 3.32
							 601.13 C3.34 601.11 3.36 601.09 3.39 601.08 L4.3 600.48 C4.31 600.48 4.33 600.47 4.34 600.46 C4.36 600.46
							 4.38 600.45 4.41 600.45 C4.43 600.45 4.47 600.44 4.51 600.44 C4.55 600.44 4.61 600.44 4.68 600.44 C4.76
							 600.44 4.83 600.44 4.88 600.45 C4.93 600.45 4.97 600.46 5 600.46 C5.02 600.47 5.04 600.48 5.05 600.5
							 C5.06 600.51 5.06 600.52 5.06 600.54 L5.06 604.06 L5.76 604.06 C5.78 604.06 5.79 604.07 5.81 604.08
							 C5.83 604.09 5.84 604.11 5.85 604.14 C5.87 604.16 5.87 604.2 5.88 604.24 C5.88 604.28 5.89 604.34 5.89
							 604.4 C5.89 604.46 5.88 604.51 5.88 604.56 C5.87 604.6 5.86 604.63 5.85 604.66 C5.84 604.68 5.82 604.7
							 5.81 604.71 C5.79 604.72 5.78 604.73 5.76 604.73 L3.41 604.73 C3.39 604.73 3.37 604.72 3.36 604.71 C3.34
							 604.7 3.33 604.68 3.32 604.66 C3.3 604.63 3.29 604.6 3.29 604.56 C3.28 604.51 3.28 604.46 3.28 604.4
							 C3.28 604.34 3.28 604.28 3.29 604.24 C3.29 604.2 3.3 604.16 3.31 604.14 C3.33 604.11 3.34 604.09 3.35
							 604.08 C3.37 604.07 3.39 604.06 3.41 604.06 L4.2 604.06 L4.2 601.29 L3.52 601.67 C3.47 601.69 3.42 601.71
							 3.39 601.71 C3.36 601.72 3.34 601.71 3.32 601.69 C3.3 601.68 3.29 601.64 3.28 601.6 C3.27 601.55 3.27
							 601.49 3.27 601.4 C3.27 601.35 3.27 601.31 3.27 601.27 ZM5.93 609.34 C5.88 609.62 5.79 609.85 5.66 610.04
							 C5.54 610.24 5.38 610.39 5.18 610.49 C4.98 610.59 4.74 610.64 4.45 610.64 C4.16 610.64 3.92 610.59 3.73
							 610.49 C3.54 610.39 3.38 610.25 3.27 610.06 C3.16 609.87 3.08 609.65 3.04 609.37 C2.99 609.1 2.97 608.8
							 2.97 608.45 C2.97 608.12 3 607.81 3.05 607.54 C3.11 607.26 3.2 607.03 3.32 606.83 C3.45 606.64 3.61
							 606.49 3.81 606.39 C4.01 606.29 4.25 606.23 4.53 606.23 C4.82 606.23 5.07 606.28 5.26 606.38 C5.45 606.48
							 5.6 606.63 5.71 606.82 C5.83 607 5.9 607.23 5.95 607.5 C5.99 607.77 6.01 608.08 6.01 608.42 C6.01 608.76
							 5.99 609.07 5.93 609.34 ZM9.29 610.4 C9.29 610.44 9.28 610.47 9.26 610.5 C9.25 610.52 9.24 610.54 9.22
							 610.55 C9.21 610.56 9.19 610.57 9.17 610.57 L6.82 610.57 C6.8 610.57 6.79 610.56 6.77 610.55 C6.76 610.54
							 6.74 610.52 6.73 610.5 C6.72 610.47 6.71 610.44 6.7 610.4 C6.7 610.35 6.69 610.3 6.69 610.24 C6.69 610.18
							 6.7 610.12 6.7 610.08 C6.71 610.04 6.72 610 6.73 609.98 C6.74 609.95 6.75 609.93 6.77 609.92 C6.78 609.91
							 6.8 609.9 6.82 609.9 L7.61 609.9 L7.61 607.13 L6.93 607.51 C6.88 607.53 6.84 607.55 6.81 607.55 C6.78
							 607.56 6.75 607.55 6.73 607.53 C6.71 607.51 6.7 607.48 6.69 607.44 C6.69 607.39 6.68 607.33 6.68 607.24
							 C6.68 607.19 6.69 607.15 6.69 607.11 C6.69 607.08 6.7 607.05 6.7 607.03 C6.71 607 6.73 606.98 6.74 606.97
							 C6.76 606.95 6.78 606.93 6.8 606.92 L7.72 606.32 C7.73 606.32 7.74 606.31 7.76 606.3 C7.77 606.3 7.8
							 606.29 7.82 606.29 C7.85 606.29 7.88 606.28 7.93 606.28 C7.97 606.28 8.02 606.28 8.09 606.28 C8.18 606.28
							 8.24 606.28 8.3 606.29 C8.35 606.29 8.39 606.3 8.41 606.3 C8.44 606.31 8.46 606.32 8.46 606.33 C8.47
							 606.35 8.48 606.36 8.48 606.38 L8.48 609.9 L9.17 609.9 C9.19 609.9 9.21 609.91 9.23 609.92 C9.24 609.93
							 9.26 609.95 9.27 609.98 C9.28 610 9.29 610.04 9.3 610.08 C9.3 610.12 9.3 610.18 9.3 610.24 C9.3 610.3
							 9.3 610.35 9.29 610.4 ZM9.35 603.5 C9.29 603.78 9.2 604.01 9.08 604.21 C8.95 604.4 8.79 604.55 8.59
							 604.65 C8.39 604.75 8.15 604.8 7.87 604.8 C7.57 604.8 7.33 604.75 7.14 604.65 C6.95 604.55 6.8 604.41
							 6.69 604.22 C6.58 604.04 6.5 603.81 6.45 603.53 C6.41 603.26 6.38 602.96 6.38 602.62 C6.38 602.28 6.41
							 601.97 6.47 601.7 C6.52 601.42 6.61 601.19 6.74 600.99 C6.86 600.8 7.02 600.65 7.22 600.55 C7.42 600.45
							 7.66 600.4 7.95 600.4 C8.24 600.4 8.48 600.45 8.67 600.55 C8.87 600.65 9.02 600.79 9.13 600.98 C9.24
							 601.16 9.32 601.39 9.36 601.66 C9.41 601.94 9.43 602.24 9.43 602.58 C9.43 602.92 9.4 603.23 9.35 603.5
							 Z" class="st2"/>
			</g>
			<g id="shape13-30" v:mID="13" v:groupContext="groupContent">
				<v:textBlock v:margins="rect(0,0,0,0)" v:verticalAlign="0"/>
				<v:textRect cx="14.46" cy="630" width="72" height="31.5"/>
				<text x="-8.72" y="622.35" class="st3" v:langID="1033"><v:paragraph v:horizAlign="1"/><v:tabList/>Storage blob</text>			</g>
		</g>
		<g id="shape20-32" v:mID="20" v:groupContext="shape" transform="translate(377.08,-189)">
			<title>Azure Functions (nc).20</title>
			<path d="M23.6 582.75 L13.94 582.75 L8.73 597.42 L15.08 597.47 L10.12 612 L23.8 592.62 L17.16 592.62 L23.6 582.75 ZM0.2
						 597.57 L1.74 599.31 L1.79 599.36 L8.73 606 C8.98 606.25 9.53 606.3 9.82 606 C10.12 605.7 10.12 605.16 9.82
						 604.86 L2.63 597.57 C2.34 597.28 2.34 596.73 2.63 596.43 L9.67 589.39 C10.07 589.1 9.97 588.55 9.67 588.25
						 C9.33 587.96 8.88 587.96 8.58 588.25 L1.74 594.9 L0.2 596.43 C-0.04 596.73 -0.09 597.28 0.2 597.57 ZM31.54
						 597.57 C31.83 597.28 31.79 596.73 31.54 596.43 L30 594.9 L23.16 588.25 C22.86 587.96 22.42 587.96 22.07
						 588.25 C21.77 588.55 21.67 589.1 22.07 589.39 L29.26 596.43 C29.55 596.73 29.55 597.28 29.26 597.57 L21.92
						 604.86 C21.62 605.16 21.62 605.7 21.92 606 C22.22 606.3 22.76 606.25 23.01 606 L29.8 599.26 L29.85 599.21
						 L31.54 597.57 Z" class="st2"/>
		</g>
		<g id="group21-34" transform="translate(356.951,-513)" v:mID="21" v:groupContext="group">
			<v:custProps>
				<v:cp v:nameU="Name" v:lbl="Name" v:prompt="" v:type="0" v:format="" v:sortKey="" v:invis="false" v:ask="false"
						v:langID="1033" v:cal="0"/>
				<v:cp v:nameU="Location" v:lbl="Location" v:prompt="" v:type="0" v:format="" v:sortKey="" v:invis="false"
						v:ask="false" v:langID="1033" v:cal="0"/>
				<v:cp v:nameU="Building" v:lbl="Building" v:prompt="" v:type="0" v:format="" v:sortKey="" v:invis="false"
						v:ask="false" v:langID="1033" v:cal="0"/>
				<v:cp v:nameU="Room" v:lbl="Room" v:prompt="" v:type="0" v:format="" v:sortKey="" v:invis="false" v:ask="false"
						v:langID="1033" v:cal="0"/>
				<v:cp v:nameU="Department" v:lbl="Department" v:prompt="" v:type="0" v:format="" v:sortKey="" v:invis="false"
						v:ask="false" v:langID="1033" v:cal="0"/>
				<v:cp v:nameU="ShapeClass" v:lbl="ShapeClass" v:prompt="" v:type="0" v:format="" v:sortKey="" v:invis="true"
						v:ask="false" v:langID="1033" v:cal="0" v:val="VT4(Connectivity)"/>
				<v:cp v:nameU="ShapeType" v:lbl="ShapeType" v:prompt="" v:type="0" v:format="" v:sortKey="" v:invis="true"
						v:ask="false" v:langID="1033" v:cal="0" v:val="VT4(User)"/>
			</v:custProps>
			<v:userDefs>
				<v:ud v:nameU="visVersion" v:prompt="" v:val="VT0(15):26"/>
				<v:ud v:nameU="ShapeClass" v:prompt="" v:val="VT0(5):26"/>
				<v:ud v:nameU="SolSH" v:prompt="" v:val="VT15({BF0433D9-CD73-4EB5-8390-8653BE590246}):41"/>
				<v:ud v:nameU="visLegendShape" v:prompt="" v:val="VT0(2):26"/>
			</v:userDefs>
			<title>User</title>
			<g id="shape22-35" v:mID="22" v:groupContext="shape" transform="translate(18.3464,0)">
				<title>Sheet.22</title>
				<path d="M26.71 548.95 A8.95096 8.95096 -180 1 0 8.81 548.95 A8.95096 8.95096 -180 1 0 26.71 548.95 ZM28.02 560.32
							 L7.28 560.32 C3.27 560.32 0 563.59 0 567.6 L0 593.01 L5.68 593.01 L5.68 578.22 L7.57 578.22 L7.57 612
							 L16.81 612 L16.81 596.9 C16.81 596.38 17.24 595.96 17.76 595.96 C18.29 595.96 18.71 596.38 18.71 596.9
							 L18.71 612 L28.49 612 L28.49 578.17 L30.38 578.17 L30.38 593.01 L35.31 593.01 L35.31 567.6 C35.31 563.59
							 32.04 560.32 28.02 560.32 Z" class="st4"/>
			</g>
		</g>
		<g id="group23-37" transform="translate(374.201,-426.702)" v:mID="23" v:groupContext="group">
			<title>Storage</title>
			<desc>Storage</desc>
			<g id="shape24-38" v:mID="24" v:groupContext="shape">
				<title>Sheet.24</title>
				<path d="M36.07 578.25 L1.35 578.25 C0.6 578.25 0 579 0 579.75 L0 584.25 L37.5 584.25 L37.5 579.75 C37.5 579 36.9
							 578.25 36.07 578.25 ZM0 610.58 C0 611.33 0.6 612 1.35 612 L36.07 612 C36.82 612 37.5 611.4 37.5 610.58
							 L37.5 585.75 L0 585.75 L0 610.58 ZM3 588.75 L34.5 588.75 L34.5 594 L3 594 L3 588.75 ZM3 596.25 L34.5
							 596.25 L34.5 601.5 L3 601.5 L3 596.25 ZM3 603.75 L34.5 603.75 L34.5 609 L3 609 L3 603.75 Z"
						class="st2"/>
			</g>
			<g id="shape23-40" v:mID="23" v:groupContext="groupContent">
				<v:textBlock v:margins="rect(0,0,0,0)"/>
				<v:textRect cx="18.75" cy="622.952" width="37.5" height="33.75"/>
				<text x="4.72" y="626.55" class="st5" v:langID="1033"><v:paragraph v:horizAlign="1"/><v:tabList/>Storage</text>			</g>
		</g>
		<g id="group25-42" transform="translate(653.906,-76.3977)" v:mID="25" v:groupContext="group">
			<title>Microsoft Azure</title>
			<desc>Microsoft Azure</desc>
			<g id="shape26-43" v:mID="26" v:groupContext="shape" transform="translate(-2.07834E-13,-6.33181)">
				<title>Sheet.26</title>
				<path d="M25.11 606.59 C24 606.59 23.08 607.25 22.64 608.21 L6.92 608.21 C4.27 608.21 2.1 606.07 2.1 603.39 C2.1
							 600.74 4.23 598.56 6.92 598.56 L6.96 598.56 L6.99 598.56 L9.17 598.56 C9.28 598.01 9.42 597.46 9.64
							 596.98 C9.72 596.8 9.83 596.61 9.94 596.43 C11.04 594.51 13.11 593.23 15.5 593.23 C17.6 593.23 19.47
							 594.26 20.65 595.84 C21.31 595.54 22.01 595.29 22.75 595.14 C21.24 592.71 18.55 591.13 15.5 591.13 C11.93
							 591.13 8.84 593.34 7.58 596.46 C7.58 596.46 7.58 596.5 7.58 596.5 C7.58 596.5 7.58 596.46 7.58 596.46
							 L6.96 596.46 C3.13 596.46 0 599.56 0 603.42 C0 607.29 3.09 610.38 6.96 610.38 L22.68 610.38 C23.08 611.34
							 24.04 612 25.14 612 C26.62 612 27.83 610.82 27.83 609.31 C27.83 607.8 26.58 606.59 25.11 606.59 Z"
						class="st6"/>
			</g>
			<g id="shape27-45" v:mID="27" v:groupContext="shape" transform="translate(9.01914,1.13687E-13)">
				<title>Sheet.27</title>
				<path d="M24.7 594.96 C23.12 591.79 19.84 589.58 16.09 589.58 C11.49 589.58 7.66 592.78 6.7 597.09 C4.45 597.31 2.54
							 598.49 1.29 600.26 L12.74 600.26 C13.51 599.26 14.73 598.64 16.09 598.64 C18.44 598.64 20.36 600.55
							 20.36 602.91 C20.36 605.26 18.44 607.18 16.09 607.18 C14.73 607.18 13.55 606.55 12.74 605.56 L0 605.56
							 C0.52 609.2 3.64 612 7.4 612 C7.4 612 7.44 612 7.44 612 L24.59 612 C24.59 612 24.63 612 24.63 612 C29.34
							 612 33.17 608.17 33.17 603.46 C33.17 598.78 29.38 594.99 24.7 594.96 Z" class="st6"/>
			</g>
			<g id="shape25-47" v:mID="25" v:groupContext="groupContent">
				<v:textBlock v:margins="rect(0,0,0,0)" v:verticalAlign="0"/>
				<v:textRect cx="21.0937" cy="632.148" width="72" height="29.25"/>
				<text x="3.36" y="625.62" class="st3" v:langID="1033"><v:paragraph v:horizAlign="1"/><v:tabList/>Microsoft<v:newlineChar/><tspan
							x="9.52" dy="1.2em" class="st7"> </tspan>Azure</text>			</g>
		</g>
		<g id="group28-50" transform="translate(603,-430.08)" v:mID="28" v:groupContext="group">
			<title>Sheet.28</title>
			<g id="group29-51" v:mID="29" v:groupContext="group">
				<title> SignalRServiceblue</title>
				<g id="shape30-52" v:mID="30" v:groupContext="shape">
					<title>Sheet.30</title>
					<path d="M11.83 604.11 L13.46 600.17 L17.09 600.17 A2.6323 2.6323 -180 0 0 19.72 597.54 A2.6323 2.6323 -180 0
								 0 17.09 594.91 L5.26 594.91 L11.83 588.34 L11.83 590.97 L17.09 590.97 C20.72 590.97 23.66 593.91
								 23.66 597.54 C23.66 601.07 20.87 603.93 17.38 604.08 L22.71 609.41 C26.46 606.8 28.92 602.46 28.92
								 597.54 C28.92 589.55 22.45 583.08 14.46 583.08 C6.47 583.08 0 589.55 0 597.54 C0 605.53 6.47 612
								 14.46 612 C16.04 612 17.56 611.74 18.99 611.27 L11.83 604.11 Z" class="st8"/>
				</g>
			</g>
		</g>
		<g id="shape31-54" v:mID="31" v:groupContext="shape" v:layerMember="0" transform="translate(383.951,-549)">
			<title>Dynamic connector</title>
			<desc>User clicks btn</desc>
			<v:textBlock v:margins="rect(4,4,4,4)"/>
			<v:textRect cx="9" cy="653.743" width="56.75" height="17.6036"/>
			<path d="M9 612 L9 689.45" class="st9"/>
			<rect v:rectContext="textBkgnd" x="-14.4683" y="648.943" width="46.9369" height="9.59985" class="st11"/>
			<text x="-14.47" y="656.14" class="st12" v:langID="1033"><v:paragraph v:horizAlign="1"/><v:tabList/>User clicks btn</text>		</g>
		<g id="shape32-62" v:mID="32" v:groupContext="shape" v:layerMember="0" transform="translate(383.951,-420.515)">
			<title>Dynamic connector.32</title>
			<desc>calls function</desc>
			<v:textBlock v:margins="rect(4,4,4,4)"/>
			<v:textRect cx="9" cy="632.786" width="52.81" height="17.6036"/>
			<path d="M9 612 L9 647.53" class="st9"/>
			<rect v:rectContext="textBkgnd" x="-12.4956" y="627.987" width="42.9914" height="9.59985" class="st11"/>
			<text x="-12.5" y="635.19" class="st12" v:langID="1033"><v:paragraph v:horizAlign="1"/><v:tabList/>calls function</text>		</g>
		<g id="shape33-69" v:mID="33" v:groupContext="shape" v:layerMember="0" transform="translate(383.951,-363.254)">
			<title>Dynamic connector.33</title>
			<desc>Enqueue work</desc>
			<v:textBlock v:margins="rect(4,4,4,4)"/>
			<v:textRect cx="9" cy="637.352" width="56.67" height="17.6036"/>
			<path d="M9 612 L9 656.66" class="st9"/>
			<rect v:rectContext="textBkgnd" x="-14.4255" y="632.553" width="46.8512" height="9.59985" class="st11"/>
			<text x="-14.43" y="639.75" class="st12" v:langID="1033"><v:paragraph v:horizAlign="1"/><v:tabList/>Enqueue work</text>		</g>
		<g id="shape34-76" v:mID="34" v:groupContext="shape" v:layerMember="0" transform="translate(383.951,-290.049)">
			<title>Dynamic connector.34</title>
			<desc>Dequeue work</desc>
			<v:textBlock v:margins="rect(4,4,4,4)"/>
			<v:textRect cx="9" cy="647.9" width="57.46" height="17.6036"/>
			<path d="M9 612 L9 677.76" class="st9"/>
			<rect v:rectContext="textBkgnd" x="-14.822" y="643.1" width="47.6441" height="9.59985" class="st11"/>
			<text x="-14.82" y="650.3" class="st12" v:langID="1033"><v:paragraph v:horizAlign="1"/><v:tabList/>Dequeue work</text>		</g>
		<g id="shape35-83" v:mID="35" v:groupContext="shape" v:layerMember="0" transform="translate(383.951,-197.147)">
			<title>Dynamic connector.35</title>
			<desc>Write file</desc>
			<v:textBlock v:margins="rect(4,4,4,4)"/>
			<v:textRect cx="9" cy="639.789" width="40.12" height="17.6036"/>
			<path d="M9 612 L9 661.54" class="st9"/>
			<rect v:rectContext="textBkgnd" x="-6.15196" y="634.989" width="30.3041" height="9.59985" class="st11"/>
			<text x="-6.15" y="642.19" class="st12" v:langID="1033"><v:paragraph v:horizAlign="1"/><v:tabList/>Write file</text>		</g>
		<g id="shape36-90" v:mID="36" v:groupContext="shape" v:layerMember="0" transform="translate(408.753,-203.625)">
			<title>Dynamic connector.36</title>
			<desc>Send message</desc>
			<v:textBlock v:margins="rect(4,4,4,4)"/>
			<v:textRect cx="208.707" cy="603.126" width="55.89" height="17.6036"/>
			<path d="M0 612 L208.71 612 L208.71 391.58" class="st9"/>
			<rect v:rectContext="textBkgnd" x="185.669" y="598.326" width="46.0775" height="9.59985" class="st11"/>
			<text x="185.67" y="605.53" class="st12" v:langID="1033"><v:paragraph v:horizAlign="1"/><v:tabList/>Send message</text>		</g>
		<g id="shape37-97" v:mID="37" v:groupContext="shape" v:layerMember="0" transform="translate(603,-453.059)">
			<title>Dynamic connector.37</title>
			<desc>Subscribe topic</desc>
			<v:textBlock v:margins="rect(4,4,4,4)"/>
			<v:textRect cx="-92.1601" cy="621.482" width="59.35" height="17.6036"/>
			<path d="M0 620.52 L-18 620.52 L-18 621.48 L-179.24 621.48" class="st9"/>
			<rect v:rectContext="textBkgnd" x="-116.925" y="616.682" width="49.5305" height="9.59985" class="st11"/>
			<text x="-116.93" y="623.88" class="st12" v:langID="1033"><v:paragraph v:horizAlign="1"/><v:tabList/>Subscribe topic</text>		</g>
		<g id="shape38-104" v:mID="38" v:groupContext="shape" v:layerMember="0" transform="translate(423.334,-443.577)">
			<title>Dynamic connector.38</title>
			<desc>Receive notification</desc>
			<v:textBlock v:margins="rect(4,4,4,4)"/>
			<v:textRect cx="17.666" cy="573.906" width="74.11" height="17.6036"/>
			<path d="M-5.62 612 L17.67 612 L17.67 542.58 L-6.34 542.58" class="st9"/>
			<rect v:rectContext="textBkgnd" x="-14.4797" y="569.106" width="64.2917" height="9.59985" class="st11"/>
			<text x="-14.48" y="576.31" class="st12" v:langID="1033"><v:paragraph v:horizAlign="1"/><v:tabList/>Receive notification</text>		</g>
	</g>
</svg>
